<?xml version="1.0" standalone="no"?>
<!DOCTYPE svg PUBLIC "-//W3C//DTD SVG 20010904//EN"
 "http://www.w3.org/TR/2001/REC-SVG-20010904/DTD/svg10.dtd">
<svg version="1.0" xmlns="http://www.w3.org/2000/svg"
 width="700.000000pt" height="700.000000pt" viewBox="0 0 700.000000 700.000000"
 preserveAspectRatio="xMidYMid meet">
<metadata>
Created by potrace 1.14, written by Peter Selinger 2001-2017
</metadata>
<g transform="translate(0.000000,700.000000) scale(0.100000,-0.100000)"
fill="#000000" stroke="none">
<path d="M3279 6996 c-2 -2 -42 -6 -89 -10 -47 -4 -101 -9 -120 -12 -87 -13
-217 -34 -240 -39 -14 -3 -47 -10 -75 -15 -130 -26 -437 -119 -540 -165 -16
-7 -46 -19 -65 -26 -81 -32 -376 -184 -477 -246 -307 -190 -610 -449 -824
-705 -46 -55 -96 -114 -111 -131 -15 -18 -28 -35 -28 -39 0 -4 -6 -13 -13 -20
-28 -28 -148 -209 -209 -313 -77 -133 -135 -245 -178 -345 -18 -41 -41 -95
-52 -119 -33 -74 -116 -329 -147 -456 -26 -103 -39 -169 -66 -320 -3 -16 -8
-57 -11 -90 -3 -33 -7 -66 -10 -74 -7 -21 -17 -242 -17 -366 0 -559 125 -1085
375 -1579 33 -66 71 -137 84 -158 13 -21 24 -40 24 -43 0 -3 8 -18 19 -33 10
-15 51 -76 91 -137 84 -127 142 -203 256 -335 118 -137 192 -211 374 -375 71
-64 219 -175 335 -252 386 -256 792 -425 1240 -517 116 -24 136 -27 255 -41
30 -4 66 -8 80 -11 89 -15 451 -18 2055 -18 l1800 0 3 292 2 292 -781 0 -781
0 53 37 c58 39 207 150 225 168 6 5 38 33 70 60 163 138 361 348 497 527 402
530 648 1163 704 1818 15 169 7 628 -12 725 -2 11 -7 40 -10 65 -3 25 -7 56
-10 70 -3 14 -8 41 -11 60 -7 47 -53 257 -64 295 -148 499 -335 872 -624 1240
-38 50 -75 95 -81 101 -5 6 -34 39 -64 73 -220 251 -529 504 -846 693 -346
206 -821 376 -1210 434 -27 4 -57 9 -65 10 -8 2 -42 6 -76 9 -33 4 -74 9 -90
11 -33 5 -540 14 -545 10z m431 -1046 c243 -81 403 -239 487 -478 23 -68 27
-93 27 -207 1 -71 -2 -141 -5 -155 -54 -212 -151 -355 -319 -467 -330 -222
-792 -123 -1009 216 -149 234 -155 525 -13 763 102 173 278 299 477 343 89 20
273 12 355 -15z m-1693 -1201 c205 -51 380 -193 474 -384 56 -115 73 -190 73
-320 -1 -168 -46 -308 -141 -437 -82 -113 -239 -223 -372 -262 -398 -117 -812
117 -917 519 -22 87 -26 235 -8 321 31 149 96 267 205 375 100 100 232 170
374 199 71 15 233 9 312 -11z m3317 1 c374 -96 604 -435 553 -815 -32 -232
-202 -456 -420 -555 -247 -111 -538 -76 -747 88 -119 94 -213 229 -251 362 -7
25 -13 47 -14 50 -16 56 -21 182 -10 260 9 73 10 75 34 144 37 104 90 187 175
272 107 106 224 171 371 202 80 17 226 14 309 -8z m-2668 -1960 c350 -96 580
-442 530 -800 -28 -205 -157 -407 -329 -514 -138 -85 -255 -117 -412 -112 -55
2 -109 6 -120 9 -127 32 -192 60 -281 123 -247 174 -358 479 -283 779 6 28 15
55 19 60 4 6 13 27 20 48 14 45 85 151 138 210 44 47 138 115 207 150 148 74
346 93 511 47z m2041 4 c188 -54 323 -148 425 -297 80 -117 118 -238 123 -387
7 -208 -65 -389 -212 -536 -148 -147 -324 -217 -533 -210 -119 4 -133 7 -232
42 -217 78 -385 262 -450 491 -31 109 -30 278 1 383 74 251 241 423 491 505
107 35 282 39 387 9z"/>
</g>
</svg>
