<?xml version="1.0" standalone="no"?>
<!DOCTYPE svg PUBLIC "-//W3C//DTD SVG 20010904//EN"
 "http://www.w3.org/TR/2001/REC-SVG-20010904/DTD/svg10.dtd">
<svg version="1.0" xmlns="http://www.w3.org/2000/svg"
 width="700.000000pt" height="700.000000pt" viewBox="0 0 700.000000 700.000000"
 preserveAspectRatio="xMidYMid meet">
<metadata>
Created by potrace 1.14, written by Peter Selinger 2001-2017
</metadata>
<g transform="translate(0.000000,700.000000) scale(0.100000,-0.100000)"
fill="#000000" stroke="none">
<path d="M3219 6986 c-2 -2 -38 -7 -79 -10 -87 -8 -112 -12 -235 -32 -515 -86
-1022 -300 -1455 -614 -58 -42 -117 -86 -130 -97 -272 -227 -450 -412 -621
-643 -138 -187 -277 -416 -354 -583 -66 -144 -82 -183 -96 -222 -7 -22 -16
-44 -20 -50 -4 -5 -25 -68 -48 -138 -60 -186 -94 -327 -136 -562 -3 -16 -8
-57 -11 -90 -3 -33 -7 -66 -10 -74 -21 -63 -20 -640 1 -746 2 -11 6 -42 9 -70
10 -97 47 -289 81 -419 273 -1064 1034 -1940 2052 -2362 202 -84 514 -177 668
-199 22 -4 47 -8 55 -10 35 -10 198 -31 340 -44 52 -5 919 -9 1927 -10 l1832
-1 0 290 0 290 -22 1 c-12 0 -363 1 -780 1 l-759 -1 44 31 c61 44 227 169 241
182 7 6 39 34 72 61 75 63 261 249 338 337 111 127 337 431 337 454 0 3 14 26
31 51 88 128 270 528 329 723 12 41 28 93 35 115 33 103 89 373 101 484 3 30
7 63 9 74 25 129 25 652 0 811 -2 12 -11 71 -20 131 -9 61 -23 137 -30 170 -8
33 -16 71 -19 85 -8 47 -65 245 -94 330 -109 317 -309 699 -489 935 -13 17
-27 35 -31 40 -4 6 -24 32 -44 58 -95 125 -323 363 -465 486 -110 95 -326 253
-448 328 -101 62 -302 167 -419 219 -194 86 -501 187 -631 210 -16 2 -43 9
-60 14 -33 10 -190 36 -275 46 -30 3 -66 8 -80 11 -29 6 -635 15 -641 9z m451
-1032 c322 -79 554 -374 552 -704 0 -122 -22 -212 -77 -325 -47 -98 -138 -207
-217 -260 -23 -17 -45 -32 -48 -35 -12 -12 -90 -49 -145 -68 -84 -30 -165 -41
-275 -37 -187 7 -351 82 -485 221 -237 245 -271 622 -81 906 113 170 308 293
496 314 30 4 56 8 58 9 9 8 166 -7 222 -21z m-1645 -1208 c194 -53 369 -197
463 -381 85 -168 99 -374 36 -557 -131 -385 -553 -587 -935 -448 -389 142
-582 581 -422 964 91 217 289 381 523 430 83 18 255 14 335 -8z m3320 0 c187
-52 352 -182 448 -353 263 -475 -72 -1060 -616 -1077 -345 -11 -651 230 -730
574 -15 64 -17 243 -3 302 65 278 275 491 551 559 88 21 263 19 350 -5z
m-2695 -1951 c254 -66 463 -276 526 -527 18 -72 25 -238 12 -303 -55 -287
-262 -508 -543 -580 -109 -28 -266 -24 -379 9 -186 56 -343 183 -438 356 -88
161 -108 391 -48 564 72 210 210 359 415 448 126 55 318 69 455 33z m2000 12
c134 -21 280 -97 384 -201 313 -310 280 -823 -69 -1091 -421 -323 -1036 -99
-1150 419 -56 253 28 519 220 694 93 86 251 163 362 178 26 3 50 8 51 9 5 4
167 -3 202 -8z"/>
</g>
</svg>
